<svg xmlns="http://www.w3.org/2000/svg" version="1.1" xmlns:xlink="http://www.w3.org/1999/xlink" xmlns:svgjs="http://svgjs.dev/svgjs" width="187" height="158"><svg width="187" height="158" viewBox="0 0 187 158" fill="none" xmlns="http://www.w3.org/2000/svg">
<path d="M17.0759 60.362L17.0791 60.3611C17.1695 60.3363 17.2936 60.326 17.4039 60.3185C17.5336 60.3097 17.7105 60.3018 17.9418 60.2944C18.4053 60.2796 19.1039 60.2667 20.1163 60.2553C22.1421 60.2325 25.4362 60.2159 30.644 60.2037C41.0604 60.1794 59.1399 60.1734 90.0577 60.1734L162.276 60.1612L162.356 60.1612L162.432 60.1859L163.311 60.4728C163.313 60.4735 163.316 60.4742 163.318 60.4749C163.846 60.6311 164.494 60.9303 164.799 61.16L164.802 61.1626C164.842 61.1928 164.88 61.2185 164.926 61.2491C164.968 61.2768 165.029 61.3164 165.087 61.3609C165.222 61.4649 165.347 61.5988 165.444 61.8079C165.609 62.1631 165.682 62.7249 165.728 63.7096C165.81 65.4671 165.809 68.8693 165.807 75.6493C165.807 76.6704 165.807 77.7682 165.807 78.9485C165.807 86.8339 165.804 90.9008 165.774 93.0411C165.758 94.107 165.737 94.712 165.703 95.0763C165.668 95.4527 165.616 95.635 165.507 95.8174L165.506 95.8188C165.112 96.4727 164.383 96.9771 163.483 97.3257L163.483 97.3257L163.478 97.3277L162.766 97.5947L162.681 97.6264L162.591 97.6265L90.5772 97.6629C64.1682 97.675 46.1101 97.675 34.5817 97.6598C28.8176 97.6523 24.6852 97.6409 21.9574 97.6253C20.5936 97.6176 19.5797 97.6087 18.8881 97.5988C18.5425 97.5938 18.2755 97.5886 18.0849 97.5829C17.9157 97.578 17.7627 97.5721 17.684 97.5589L17.684 97.5589L17.6813 97.5585C17.1017 97.458 16.4903 97.2434 15.9746 96.9826C15.4801 96.7325 14.9929 96.3996 14.7427 96.0201L14.4665 95.6097L14.3813 95.4831V95.3305V78.8514V62.3723V62.1829L14.5067 62.041L14.8902 61.6074C15.4137 60.9954 16.1219 60.6304 17.0759 60.362ZM118.275 77.2933L118.275 77.2929C117.661 75.1941 116.058 73.6489 113.933 73.0981C110.207 72.1432 106.43 75.3354 106.686 79.2556C106.921 82.7426 109.948 85.2358 113.404 84.799C115.571 84.5209 117.572 82.8283 118.228 80.6832L118.228 80.6826C118.36 80.2533 118.439 79.6226 118.448 78.9706C118.456 78.3172 118.394 77.6993 118.275 77.2933ZM136.988 77.3082L136.987 77.3044C136.373 75.1936 134.77 73.6488 132.645 73.0981C129.058 72.178 125.363 75.1291 125.363 78.9849C125.363 79.3319 125.456 79.8706 125.612 80.4367C125.768 81.0002 125.972 81.5365 126.168 81.8814L126.169 81.8832C126.997 83.3602 128.769 84.5663 130.449 84.7997C133.378 85.2023 136.139 83.4251 136.988 80.5426L136.989 80.5383C137.101 80.17 137.166 79.5681 137.166 78.9287C137.166 78.2898 137.101 77.6839 136.988 77.3082ZM156.904 77.3531L156.902 77.348C156.428 75.4745 154.942 73.898 152.95 73.1958C152.628 73.0868 152.048 73.0071 151.414 72.9864C150.783 72.9658 150.176 73.0064 149.808 73.0987C146.657 73.9049 144.704 77.1206 145.451 80.3151C146.252 83.7216 150.031 85.7267 153.297 84.4761L153.298 84.4756C154.471 84.0309 155.707 82.9795 156.325 81.8928L156.327 81.8882C157.042 80.6609 157.282 78.7837 156.904 77.3531Z" fill="#CDDC39" stroke="black"></path>
<mask id="SvgjsMask1109" maskUnits="userSpaceOnUse" x="8.55778" y="9.93994" width="164" height="138" fill="black">
<rect fill="white" x="8.55778" y="9.93994" width="164" height="138"></rect>
<path d="M87.2493 11.0832C79.3867 11.4716 72.5873 12.9402 65.8696 15.671C63.6966 16.557 59.2688 18.8387 57.1658 20.1373C52.4927 23.038 48.6023 26.1815 44.56 30.308C40.7397 34.2039 38.1812 37.3474 35.4707 41.4739C33.4613 44.5324 31.2182 48.7924 29.8863 52.0572L29.2554 53.6107H22.1756C14.3948 53.6107 14.4532 53.6107 12.9461 54.3632C11.9764 54.8487 10.6563 56.1959 10.2123 57.1425C9.52303 58.6232 9.55808 57.3853 9.55808 78.9767C9.55808 100.677 9.52303 99.3909 10.2357 100.92C10.6212 101.77 11.9531 103.178 12.7826 103.639C14.0443 104.343 14.1027 104.343 21.9653 104.355C27.4095 104.355 29.197 104.391 29.2788 104.5C29.3372 104.585 29.6059 105.217 29.8863 105.92C30.5405 107.547 32.55 111.673 33.4963 113.324C36.382 118.312 40.1906 123.325 44.0109 127.184C46.9667 130.17 49.4785 132.415 52.0721 134.381C57.5163 138.508 62.9722 141.433 69.316 143.617C74.3046 145.329 79.5853 146.385 85.3683 146.822C87.4946 146.979 92.9973 146.979 95.1352 146.822C107.472 145.887 118.092 142.015 127.672 134.952C137.708 127.548 146.248 116.722 150.641 105.811C150.933 105.107 151.225 104.5 151.295 104.452C151.377 104.403 154.671 104.355 158.632 104.355C164.929 104.343 165.898 104.318 166.459 104.148C168.702 103.457 170.315 101.685 170.84 99.3059C170.992 98.6262 171.016 95.9197 170.992 78.649L170.957 58.7689L170.665 57.98C169.917 56.0138 168.632 54.6909 166.716 53.9384C166.062 53.6835 165.91 53.6714 158.632 53.635L151.201 53.5986L150.571 52.0572C145.769 40.3209 136.738 29.2764 125.803 21.7515C116.959 15.671 106.97 12.1513 96.0114 11.2532C94.4343 11.1197 88.6746 11.0104 87.2493 11.0832ZM90.8827 24.2274C92.3898 24.4823 94.3758 25.9266 95.953 27.8928C100.509 33.5728 103.944 41.5346 106.164 51.5232C106.362 52.4092 106.526 53.2466 106.526 53.3801C106.526 53.6107 106.246 53.6107 90.2284 53.6107C74.7836 53.6107 73.9308 53.5986 73.9308 53.3923C73.9308 53.0403 75.064 48.3797 75.6248 46.3772C77.4941 39.8111 80.2162 33.8277 83.3121 29.507C85.5202 26.4242 87.74 24.5673 89.5859 24.2396C89.8779 24.191 90.135 24.1425 90.17 24.1303C90.2051 24.1303 90.5205 24.1668 90.8827 24.2274ZM68.7903 29.0336C68.7903 29.07 68.7085 29.2278 68.6268 29.3735C68.5333 29.5191 68.0309 30.5871 67.5052 31.7523C64.8181 37.7721 62.8554 44.0833 61.1614 52.2757L60.9044 53.55L52.2824 53.5864C47.5508 53.5986 43.6721 53.5743 43.6721 53.5379C43.6721 53.3558 45.4362 50.2367 46.441 48.6468C48.3569 45.6125 50.2963 43.1002 52.7263 40.5151C56.8037 36.1822 60.8927 33.0752 66.5122 30.0531C68.3464 29.0579 68.7903 28.8637 68.7903 29.0336ZM113.898 29.9803C122.356 34.4588 128.969 40.5636 134.004 48.5739C135.137 50.3702 136.785 53.2952 136.785 53.5136C136.785 53.5743 132.918 53.5986 128.174 53.5864L119.576 53.55L119.132 51.4261C117.543 43.6828 115.58 37.4445 112.823 31.3518C112.251 30.1017 111.783 29.0458 111.783 29.0215C111.783 28.888 112.134 29.0579 113.898 29.9803ZM161.728 59.8976C163.503 60.4195 164.648 61.1962 165.069 62.1672C165.279 62.6284 165.291 63.4537 165.291 79.0252V95.41L165.046 95.9319C164.59 96.9271 163.165 97.7645 161.144 98.25C160.396 98.432 154.403 98.4442 91.2215 98.4806C44.7002 98.517 21.6732 98.4806 20.7736 98.4078C18.5889 98.2014 17.0935 97.6674 16.1122 96.745C15.2126 95.9076 15.2827 97.4611 15.2827 78.9403V62.2643L15.6215 61.7788C16.007 61.2205 16.3575 60.9414 17.2454 60.4802C17.7945 60.1889 19.2432 59.7641 20.1311 59.6427C20.3297 59.6185 52.0487 59.5942 90.6373 59.6063L160.793 59.6185L161.728 59.8976ZM61.5586 107.498C62.353 111.188 62.7269 112.681 63.7199 116.03C64.935 120.121 66.4537 124.138 68.0543 127.451C68.4632 128.301 68.7786 129.041 68.7436 129.065C68.7085 129.102 67.9258 128.713 66.9912 128.216C60.5305 124.72 55.2615 120.509 50.5066 115.047C48.7308 113.008 46.1839 109.282 44.6768 106.503C43.8474 104.962 43.6487 104.525 43.7539 104.416C43.7889 104.379 47.656 104.367 52.3525 104.379L60.8927 104.403L61.5586 107.498ZM106.456 104.416C106.643 104.488 106.514 105.168 105.708 108.469C103.605 117.001 100.474 124.223 96.7007 129.175C92.5299 134.648 89.3873 135.195 85.4968 131.153C82.214 127.743 78.8142 121.48 76.5711 114.671C75.4379 111.224 73.8256 104.925 73.9775 104.513C74.0243 104.391 77.0151 104.355 90.17 104.355C99.0373 104.355 106.362 104.379 106.456 104.416ZM136.738 104.476C136.82 104.622 135.745 106.649 134.542 108.639C131.154 114.198 126.901 118.992 121.889 122.888C119.26 124.939 116.725 126.565 113.653 128.179C111.491 129.32 111.561 129.32 112.146 128.107C115.148 121.917 117.636 114.198 119.214 106.285C119.389 105.386 119.588 104.585 119.634 104.5C119.774 104.306 136.621 104.282 136.738 104.476Z"></path>
</mask>
<path d="M87.2493 11.0832C79.3867 11.4716 72.5873 12.9402 65.8696 15.671C63.6966 16.557 59.2688 18.8387 57.1658 20.1373C52.4927 23.038 48.6023 26.1815 44.56 30.308C40.7397 34.2039 38.1812 37.3474 35.4707 41.4739C33.4613 44.5324 31.2182 48.7924 29.8863 52.0572L29.2554 53.6107H22.1756C14.3948 53.6107 14.4532 53.6107 12.9461 54.3632C11.9764 54.8487 10.6563 56.1959 10.2123 57.1425C9.52303 58.6232 9.55808 57.3853 9.55808 78.9767C9.55808 100.677 9.52303 99.3909 10.2357 100.92C10.6212 101.77 11.9531 103.178 12.7826 103.639C14.0443 104.343 14.1027 104.343 21.9653 104.355C27.4095 104.355 29.197 104.391 29.2788 104.5C29.3372 104.585 29.6059 105.217 29.8863 105.92C30.5405 107.547 32.55 111.673 33.4963 113.324C36.382 118.312 40.1906 123.325 44.0109 127.184C46.9667 130.17 49.4785 132.415 52.0721 134.381C57.5163 138.508 62.9722 141.433 69.316 143.617C74.3046 145.329 79.5853 146.385 85.3683 146.822C87.4946 146.979 92.9973 146.979 95.1352 146.822C107.472 145.887 118.092 142.015 127.672 134.952C137.708 127.548 146.248 116.722 150.641 105.811C150.933 105.107 151.225 104.5 151.295 104.452C151.377 104.403 154.671 104.355 158.632 104.355C164.929 104.343 165.898 104.318 166.459 104.148C168.702 103.457 170.315 101.685 170.84 99.3059C170.992 98.6262 171.016 95.9197 170.992 78.649L170.957 58.7689L170.665 57.98C169.917 56.0138 168.632 54.6909 166.716 53.9384C166.062 53.6835 165.91 53.6714 158.632 53.635L151.201 53.5986L150.571 52.0572C145.769 40.3209 136.738 29.2764 125.803 21.7515C116.959 15.671 106.97 12.1513 96.0114 11.2532C94.4343 11.1197 88.6746 11.0104 87.2493 11.0832ZM90.8827 24.2274C92.3898 24.4823 94.3758 25.9266 95.953 27.8928C100.509 33.5728 103.944 41.5346 106.164 51.5232C106.362 52.4092 106.526 53.2466 106.526 53.3801C106.526 53.6107 106.246 53.6107 90.2284 53.6107C74.7836 53.6107 73.9308 53.5986 73.9308 53.3923C73.9308 53.0403 75.064 48.3797 75.6248 46.3772C77.4941 39.8111 80.2162 33.8277 83.3121 29.507C85.5202 26.4242 87.74 24.5673 89.5859 24.2396C89.8779 24.191 90.135 24.1425 90.17 24.1303C90.2051 24.1303 90.5205 24.1668 90.8827 24.2274ZM68.7903 29.0336C68.7903 29.07 68.7085 29.2278 68.6268 29.3735C68.5333 29.5191 68.0309 30.5871 67.5052 31.7523C64.8181 37.7721 62.8554 44.0833 61.1614 52.2757L60.9044 53.55L52.2824 53.5864C47.5508 53.5986 43.6721 53.5743 43.6721 53.5379C43.6721 53.3558 45.4362 50.2367 46.441 48.6468C48.3569 45.6125 50.2963 43.1002 52.7263 40.5151C56.8037 36.1822 60.8927 33.0752 66.5122 30.0531C68.3464 29.0579 68.7903 28.8637 68.7903 29.0336ZM113.898 29.9803C122.356 34.4588 128.969 40.5636 134.004 48.5739C135.137 50.3702 136.785 53.2952 136.785 53.5136C136.785 53.5743 132.918 53.5986 128.174 53.5864L119.576 53.55L119.132 51.4261C117.543 43.6828 115.58 37.4445 112.823 31.3518C112.251 30.1017 111.783 29.0458 111.783 29.0215C111.783 28.888 112.134 29.0579 113.898 29.9803ZM161.728 59.8976C163.503 60.4195 164.648 61.1962 165.069 62.1672C165.279 62.6284 165.291 63.4537 165.291 79.0252V95.41L165.046 95.9319C164.59 96.9271 163.165 97.7645 161.144 98.25C160.396 98.432 154.403 98.4442 91.2215 98.4806C44.7002 98.517 21.6732 98.4806 20.7736 98.4078C18.5889 98.2014 17.0935 97.6674 16.1122 96.745C15.2126 95.9076 15.2827 97.4611 15.2827 78.9403V62.2643L15.6215 61.7788C16.007 61.2205 16.3575 60.9414 17.2454 60.4802C17.7945 60.1889 19.2432 59.7641 20.1311 59.6427C20.3297 59.6185 52.0487 59.5942 90.6373 59.6063L160.793 59.6185L161.728 59.8976ZM61.5586 107.498C62.353 111.188 62.7269 112.681 63.7199 116.03C64.935 120.121 66.4537 124.138 68.0543 127.451C68.4632 128.301 68.7786 129.041 68.7436 129.065C68.7085 129.102 67.9258 128.713 66.9912 128.216C60.5305 124.72 55.2615 120.509 50.5066 115.047C48.7308 113.008 46.1839 109.282 44.6768 106.503C43.8474 104.962 43.6487 104.525 43.7539 104.416C43.7889 104.379 47.656 104.367 52.3525 104.379L60.8927 104.403L61.5586 107.498ZM106.456 104.416C106.643 104.488 106.514 105.168 105.708 108.469C103.605 117.001 100.474 124.223 96.7007 129.175C92.5299 134.648 89.3873 135.195 85.4968 131.153C82.214 127.743 78.8142 121.48 76.5711 114.671C75.4379 111.224 73.8256 104.925 73.9775 104.513C74.0243 104.391 77.0151 104.355 90.17 104.355C99.0373 104.355 106.362 104.379 106.456 104.416ZM136.738 104.476C136.82 104.622 135.745 106.649 134.542 108.639C131.154 114.198 126.901 118.992 121.889 122.888C119.26 124.939 116.725 126.565 113.653 128.179C111.491 129.32 111.561 129.32 112.146 128.107C115.148 121.917 117.636 114.198 119.214 106.285C119.389 105.386 119.588 104.585 119.634 104.5C119.774 104.306 136.621 104.282 136.738 104.476Z" fill="#2296F3"></path>
<path d="M87.2493 11.0832C79.3867 11.4716 72.5873 12.9402 65.8696 15.671C63.6966 16.557 59.2688 18.8387 57.1658 20.1373C52.4927 23.038 48.6023 26.1815 44.56 30.308C40.7397 34.2039 38.1812 37.3474 35.4707 41.4739C33.4613 44.5324 31.2182 48.7924 29.8863 52.0572L29.2554 53.6107H22.1756C14.3948 53.6107 14.4532 53.6107 12.9461 54.3632C11.9764 54.8487 10.6563 56.1959 10.2123 57.1425C9.52303 58.6232 9.55808 57.3853 9.55808 78.9767C9.55808 100.677 9.52303 99.3909 10.2357 100.92C10.6212 101.77 11.9531 103.178 12.7826 103.639C14.0443 104.343 14.1027 104.343 21.9653 104.355C27.4095 104.355 29.197 104.391 29.2788 104.5C29.3372 104.585 29.6059 105.217 29.8863 105.92C30.5405 107.547 32.55 111.673 33.4963 113.324C36.382 118.312 40.1906 123.325 44.0109 127.184C46.9667 130.17 49.4785 132.415 52.0721 134.381C57.5163 138.508 62.9722 141.433 69.316 143.617C74.3046 145.329 79.5853 146.385 85.3683 146.822C87.4946 146.979 92.9973 146.979 95.1352 146.822C107.472 145.887 118.092 142.015 127.672 134.952C137.708 127.548 146.248 116.722 150.641 105.811C150.933 105.107 151.225 104.5 151.295 104.452C151.377 104.403 154.671 104.355 158.632 104.355C164.929 104.343 165.898 104.318 166.459 104.148C168.702 103.457 170.315 101.685 170.84 99.3059C170.992 98.6262 171.016 95.9197 170.992 78.649L170.957 58.7689L170.665 57.98C169.917 56.0138 168.632 54.6909 166.716 53.9384C166.062 53.6835 165.91 53.6714 158.632 53.635L151.201 53.5986L150.571 52.0572C145.769 40.3209 136.738 29.2764 125.803 21.7515C116.959 15.671 106.97 12.1513 96.0114 11.2532C94.4343 11.1197 88.6746 11.0104 87.2493 11.0832ZM90.8827 24.2274C92.3898 24.4823 94.3758 25.9266 95.953 27.8928C100.509 33.5728 103.944 41.5346 106.164 51.5232C106.362 52.4092 106.526 53.2466 106.526 53.3801C106.526 53.6107 106.246 53.6107 90.2284 53.6107C74.7836 53.6107 73.9308 53.5986 73.9308 53.3923C73.9308 53.0403 75.064 48.3797 75.6248 46.3772C77.4941 39.8111 80.2162 33.8277 83.3121 29.507C85.5202 26.4242 87.74 24.5673 89.5859 24.2396C89.8779 24.191 90.135 24.1425 90.17 24.1303C90.2051 24.1303 90.5205 24.1668 90.8827 24.2274ZM68.7903 29.0336C68.7903 29.07 68.7085 29.2278 68.6268 29.3735C68.5333 29.5191 68.0309 30.5871 67.5052 31.7523C64.8181 37.7721 62.8554 44.0833 61.1614 52.2757L60.9044 53.55L52.2824 53.5864C47.5508 53.5986 43.6721 53.5743 43.6721 53.5379C43.6721 53.3558 45.4362 50.2367 46.441 48.6468C48.3569 45.6125 50.2963 43.1002 52.7263 40.5151C56.8037 36.1822 60.8927 33.0752 66.5122 30.0531C68.3464 29.0579 68.7903 28.8637 68.7903 29.0336ZM113.898 29.9803C122.356 34.4588 128.969 40.5636 134.004 48.5739C135.137 50.3702 136.785 53.2952 136.785 53.5136C136.785 53.5743 132.918 53.5986 128.174 53.5864L119.576 53.55L119.132 51.4261C117.543 43.6828 115.58 37.4445 112.823 31.3518C112.251 30.1017 111.783 29.0458 111.783 29.0215C111.783 28.888 112.134 29.0579 113.898 29.9803ZM161.728 59.8976C163.503 60.4195 164.648 61.1962 165.069 62.1672C165.279 62.6284 165.291 63.4537 165.291 79.0252V95.41L165.046 95.9319C164.59 96.9271 163.165 97.7645 161.144 98.25C160.396 98.432 154.403 98.4442 91.2215 98.4806C44.7002 98.517 21.6732 98.4806 20.7736 98.4078C18.5889 98.2014 17.0935 97.6674 16.1122 96.745C15.2126 95.9076 15.2827 97.4611 15.2827 78.9403V62.2643L15.6215 61.7788C16.007 61.2205 16.3575 60.9414 17.2454 60.4802C17.7945 60.1889 19.2432 59.7641 20.1311 59.6427C20.3297 59.6185 52.0487 59.5942 90.6373 59.6063L160.793 59.6185L161.728 59.8976ZM61.5586 107.498C62.353 111.188 62.7269 112.681 63.7199 116.03C64.935 120.121 66.4537 124.138 68.0543 127.451C68.4632 128.301 68.7786 129.041 68.7436 129.065C68.7085 129.102 67.9258 128.713 66.9912 128.216C60.5305 124.72 55.2615 120.509 50.5066 115.047C48.7308 113.008 46.1839 109.282 44.6768 106.503C43.8474 104.962 43.6487 104.525 43.7539 104.416C43.7889 104.379 47.656 104.367 52.3525 104.379L60.8927 104.403L61.5586 107.498ZM106.456 104.416C106.643 104.488 106.514 105.168 105.708 108.469C103.605 117.001 100.474 124.223 96.7007 129.175C92.5299 134.648 89.3873 135.195 85.4968 131.153C82.214 127.743 78.8142 121.48 76.5711 114.671C75.4379 111.224 73.8256 104.925 73.9775 104.513C74.0243 104.391 77.0151 104.355 90.17 104.355C99.0373 104.355 106.362 104.379 106.456 104.416ZM136.738 104.476C136.82 104.622 135.745 106.649 134.542 108.639C131.154 114.198 126.901 118.992 121.889 122.888C119.26 124.939 116.725 126.565 113.653 128.179C111.491 129.32 111.561 129.32 112.146 128.107C115.148 121.917 117.636 114.198 119.214 106.285C119.389 105.386 119.588 104.585 119.634 104.5C119.774 104.306 136.621 104.282 136.738 104.476Z" stroke="black" stroke-width="2" mask="url(#path-2-outside-1_1218_8)"></path>
</svg><style>@media (prefers-color-scheme: light) { :root { filter: none; } }
@media (prefers-color-scheme: dark) { :root { filter: none; } }
</style></svg>